# xmcd
#
# Track frame offsets:
#	150
#	11087
#	21300
#	33422
#	45282
#	60642
#	74052
#	85135
#	101400
#	114450
#	133587
#	145015
#
# Disc length: 2127 seconds
#
# Revision: 0
# Processed by: cddbd v1.5.2PL0 Copyright (c) Steve Scherf et al.
# Submitted via: EasyCDDAExtractor 5.0.2.1
#
DISCID=9e084d0c
DTITLE=Various Artist - Siente Blues
DYEAR=1900
DGENRE=Blues
TTITLE0=B. B. King - Recesion Blues
TTITLE1=Buddy Guy - 100 $ bill (Money)
TTITLE2=Buddy Guy - Going home
TTITLE3=Koko Taylor - I'm a little mixed up
TTITLE4=Etta James - Jump into love
TTITLE5=Laura Lee - Dirty man
TTITLE6=Big Bill Bronzy and W. Sam - By myself
TTITLE7=Ike and Tina Turner - Shake your hand
TTITLE8=Jimi Hendrix - Go go shoes
TTITLE9=Muddy Waters - I've got my mojo working
TTITLE10=Lowell Fulson - Blue shadows
TTITLE11=Bo Diddley - Say man
EXTD=
EXTT0=
EXTT1=
EXTT2=
EXTT3=
EXTT4=
EXTT5=
EXTT6=
EXTT7=
EXTT8=
EXTT9=
EXTT10=
EXTT11=
PLAYORDER=
